# This file uses centimeters as units for non-parametric coordinates.

mtllib FurnaceHandle.mtl
g default
v 0.002862 0.082066 0.047381
v 0.002862 0.047381 0.082066
v 0.002862 -0.000000 0.094762
v 0.002862 -0.047381 0.082066
v 0.002862 -0.082066 0.047381
v 0.002862 -0.094762 -0.000000
v 0.002862 -0.082066 -0.047381
v 0.002862 -0.047381 -0.082066
v 0.002862 -0.000000 -0.094762
v 0.002862 0.047381 -0.082066
v 0.002862 0.082066 -0.047381
v 0.002862 0.094762 -0.000000
v 2.016275 0.082066 0.047381
v 2.016275 0.047381 0.082066
v 2.016275 -0.000000 0.094762
v 2.016275 -0.047381 0.082066
v 2.016275 -0.082066 0.047381
v 2.016275 -0.094762 -0.000000
v 2.016275 -0.082066 -0.047381
v 2.016275 -0.047381 -0.082066
v 2.016275 -0.000000 -0.094762
v 2.016275 0.047381 -0.082066
v 2.016275 0.082066 -0.047381
v 2.016275 0.094762 -0.000000
v 0.002862 -0.000000 -0.000000
v 2.016275 -0.000000 -0.000000
v 2.316275 0.382066 0.047381
v 2.316275 0.347381 0.082066
v 2.316275 0.300000 -0.000000
v 2.316275 0.300000 0.094762
v 2.316275 0.300000 -0.094762
v 2.316275 0.347381 -0.082066
v 2.316275 0.382066 -0.047381
v 2.316275 0.394762 -0.000000
v 2.316275 -0.300000 0.094762
v 2.316275 -0.347381 0.082066
v 2.316275 -0.300000 -0.000000
v 2.316275 -0.382066 0.047381
v 2.316275 -0.394762 -0.000000
v 2.316275 -0.382066 -0.047381
v 2.316275 -0.347381 -0.082066
v 2.316275 -0.300000 -0.094762
v 2.716275 0.382066 0.047379
v 2.716275 0.347381 0.082066
v 2.716275 0.300000 -0.000000
v 2.716275 0.300000 0.094762
v 2.716275 0.300000 -0.094762
v 2.716275 0.347381 -0.082066
v 2.716275 0.382066 -0.047381
v 2.716275 0.394762 -0.000001
v 2.716275 -0.300000 0.094762
v 2.716275 -0.347381 0.082066
v 2.716275 -0.300000 -0.000000
v 2.716275 -0.382066 0.047381
v 2.716275 -0.394762 0.000001
v 2.716275 -0.382066 -0.047379
v 2.716275 -0.347381 -0.082066
v 2.716275 -0.300000 -0.094762
vt 0.635316 0.078125
vt 0.578125 0.020934
vt 0.500000 0.000000
vt 0.421875 0.020934
vt 0.364684 0.078125
vt 0.343750 0.156250
vt 0.364684 0.234375
vt 0.421875 0.291566
vt 0.500000 0.312500
vt 0.578125 0.291566
vt 0.635316 0.234375
vt 0.656250 0.156250
vt 0.375000 0.312500
vt 0.395833 0.312500
vt 0.416667 0.312500
vt 0.437500 0.312500
vt 0.458333 0.312500
vt 0.479167 0.312500
vt 0.500000 0.312500
vt 0.520833 0.312500
vt 0.541667 0.312500
vt 0.562500 0.312500
vt 0.583333 0.312500
vt 0.604167 0.312500
vt 0.625000 0.312500
vt 0.375000 0.688440
vt 0.395833 0.688440
vt 0.416667 0.688440
vt 0.437500 0.688440
vt 0.458333 0.688440
vt 0.479167 0.688440
vt 0.500000 0.688440
vt 0.520833 0.688440
vt 0.541667 0.688440
vt 0.562500 0.688440
vt 0.583333 0.688440
vt 0.604167 0.688440
vt 0.625000 0.688440
vt 0.635316 0.765625
vt 0.578125 0.708434
vt 0.500000 0.687500
vt 0.421875 0.708434
vt 0.364684 0.765625
vt 0.343750 0.843750
vt 0.364684 0.921875
vt 0.421875 0.979066
vt 0.500000 1.000000
vt 0.578125 0.979066
vt 0.635316 0.921875
vt 0.656250 0.843750
vt 0.500000 0.150000
vt 0.500000 0.837500
vt 0.635316 0.921875
vt 0.578125 0.979066
vt 0.500000 1.000000
vt 0.500000 0.837500
vt 0.500000 0.687500
vt 0.578125 0.708434
vt 0.635316 0.765625
vt 0.656250 0.843750
vt 0.500000 1.000000
vt 0.421875 0.979066
vt 0.500000 0.837500
vt 0.364684 0.921875
vt 0.343750 0.843750
vt 0.364684 0.765625
vt 0.421875 0.708434
vt 0.500000 0.687500
vt 0.635316 0.921875
vt 0.578125 0.979066
vt 0.500000 1.000000
vt 0.500000 0.837500
vt 0.500000 1.000000
vt 0.421875 0.979066
vt 0.500000 0.837500
vt 0.364684 0.921875
vt 0.343750 0.843750
vt 0.364684 0.765625
vt 0.421875 0.708434
vt 0.500000 0.687500
vt 0.500000 0.687500
vt 0.578125 0.708434
vt 0.635316 0.765625
vt 0.656250 0.843750
vn 0.000000 0.707107 0.707107
vn 0.000000 0.707107 0.707107
vn 0.000000 0.707107 0.707107
vn 0.000000 0.707107 0.707107
vn 0.000000 0.258819 0.965926
vn 0.000000 0.258819 0.965926
vn -0.008942 0.258809 0.965887
vn -0.053690 0.258446 0.964533
vn 0.000000 -0.258819 0.965926
vn 0.000000 -0.258819 0.965926
vn -0.053690 -0.258446 0.964533
vn -0.008942 -0.258809 0.965887
vn -0.000000 -0.707107 0.707107
vn -0.000000 -0.707107 0.707107
vn -0.000000 -0.707107 0.707107
vn -0.000000 -0.707107 0.707107
vn -0.000000 -0.965926 0.258819
vn -0.000000 -0.965926 0.258819
vn -0.000000 -0.965926 0.258819
vn -0.000000 -0.965926 0.258819
vn -0.000000 -0.965926 -0.258819
vn -0.000000 -0.965926 -0.258819
vn -0.000000 -0.965926 -0.258819
vn -0.000000 -0.965926 -0.258819
vn -0.000000 -0.707107 -0.707107
vn -0.000000 -0.707107 -0.707107
vn -0.000000 -0.707107 -0.707107
vn -0.000000 -0.707107 -0.707107
vn -0.000000 -0.258819 -0.965926
vn -0.000000 -0.258819 -0.965926
vn -0.008942 -0.258809 -0.965887
vn -0.053690 -0.258446 -0.964533
vn -0.000000 0.258819 -0.965926
vn -0.000000 0.258819 -0.965926
vn -0.053690 0.258446 -0.964533
vn -0.008942 0.258809 -0.965887
vn 0.000000 0.707107 -0.707107
vn 0.000000 0.707107 -0.707107
vn 0.000000 0.707107 -0.707107
vn 0.000000 0.707107 -0.707107
vn 0.000000 0.965926 -0.258819
vn 0.000000 0.965926 -0.258819
vn 0.000000 0.965926 -0.258819
vn 0.000000 0.965926 -0.258819
vn 0.000000 0.965926 0.258819
vn 0.000000 0.965926 0.258819
vn 0.000000 0.965926 0.258819
vn 0.000000 0.965926 0.258819
vn -1.000000 0.000000 0.000000
vn -1.000000 0.000000 0.000000
vn -1.000000 0.000000 0.000000
vn -1.000000 0.000000 0.000000
vn -1.000000 0.000000 0.000000
vn -1.000000 0.000000 0.000000
vn -1.000000 0.000000 0.000000
vn -1.000000 0.000000 0.000000
vn -1.000000 0.000000 0.000000
vn -1.000000 0.000000 0.000000
vn -1.000000 0.000000 0.000000
vn -1.000000 0.000000 0.000000
vn -1.000000 0.000000 0.000000
vn 1.000000 -0.000000 -0.000000
vn 1.000000 -0.000000 -0.000000
vn 1.000000 -0.000000 -0.000000
vn 1.000000 -0.000000 -0.000000
vn 1.000000 -0.000000 -0.000000
vn 1.000000 -0.000000 -0.000000
vn 1.000000 -0.000000 -0.000000
vn 1.000000 -0.000000 -0.000000
vn 1.000000 -0.000000 -0.000000
vn 1.000000 -0.000000 -0.000000
vn 1.000000 -0.000000 -0.000000
vn 1.000000 -0.000000 -0.000000
vn 1.000000 -0.000000 -0.000000
vn 1.000000 -0.000000 -0.000000
vn 1.000000 -0.000000 -0.000000
vn 1.000000 -0.000000 -0.000000
vn -0.637277 0.637277 0.433308
vn -0.577349 0.577350 0.577352
vn -0.577349 0.577350 0.577352
vn -0.673859 0.673859 0.303032
vn -0.145682 0.256058 0.955621
vn -0.039476 0.258617 0.965173
vn 0.707107 -0.707107 -0.000000
vn 0.707107 -0.707107 -0.000000
vn 0.707107 -0.707107 -0.000000
vn 0.707107 -0.707107 -0.000000
vn -0.039476 0.258617 -0.965173
vn -0.145682 0.256058 -0.955621
vn 0.707107 -0.707107 -0.000000
vn 0.707107 -0.707107 -0.000000
vn -0.577349 0.577350 -0.577352
vn -0.637277 0.637277 -0.433308
vn -0.673859 0.673859 -0.303032
vn -0.577349 0.577350 -0.577352
vn -0.707107 0.707107 0.000000
vn -0.707107 0.707107 0.000000
vn -0.039476 -0.258617 0.965173
vn -0.145682 -0.256058 0.955621
vn 0.707107 0.707107 -0.000000
vn 0.707107 0.707107 -0.000000
vn 0.707107 0.707107 -0.000000
vn 0.707107 0.707107 -0.000000
vn -0.577349 -0.577350 0.577352
vn -0.637277 -0.637277 0.433308
vn -0.673859 -0.673859 0.303032
vn -0.577349 -0.577350 0.577352
vn -0.707107 -0.707107 0.000000
vn -0.707107 -0.707107 0.000000
vn -0.637277 -0.637277 -0.433308
vn -0.673859 -0.673859 -0.303032
vn -0.577349 -0.577350 -0.577352
vn -0.577349 -0.577350 -0.577352
vn -0.145682 -0.256058 -0.955621
vn -0.039476 -0.258617 -0.965173
vn 0.707107 0.707107 -0.000000
vn 0.707107 0.707107 -0.000000
vn 0.000001 0.707114 0.707100
vn 0.000001 0.707114 0.707100
vn 0.000001 0.707114 0.707100
vn 0.000001 0.707114 0.707100
vn 0.000000 0.258819 0.965926
vn 0.000000 0.258819 0.965926
vn -0.000000 -1.000000 0.000000
vn -0.000000 -1.000000 0.000000
vn -0.000000 -1.000000 0.000000
vn -0.000000 -1.000000 0.000000
vn -0.000000 0.258819 -0.965926
vn -0.000000 0.258819 -0.965926
vn -0.000000 -1.000000 0.000000
vn -0.000000 -1.000000 0.000000
vn 0.000000 0.707107 -0.707107
vn 0.000000 0.707107 -0.707107
vn 0.000000 0.707107 -0.707107
vn 0.000000 0.707107 -0.707107
vn -0.000000 0.965925 -0.258822
vn -0.000000 0.965925 -0.258822
vn -0.000000 0.965925 -0.258822
vn -0.000000 0.965925 -0.258822
vn 0.000001 0.965926 0.258819
vn 0.000001 0.965926 0.258819
vn 0.000001 0.965926 0.258819
vn 0.000001 0.965926 0.258819
vn 0.000000 -0.258819 0.965926
vn 0.000000 -0.258819 0.965926
vn 0.000000 1.000000 -0.000000
vn 0.000000 1.000000 -0.000000
vn 0.000000 1.000000 -0.000000
vn 0.000000 1.000000 -0.000000
vn -0.000000 -0.707107 0.707107
vn -0.000000 -0.707107 0.707107
vn -0.000000 -0.707107 0.707107
vn -0.000000 -0.707107 0.707107
vn -0.000000 -0.965925 0.258822
vn -0.000000 -0.965925 0.258822
vn -0.000000 -0.965925 0.258822
vn -0.000000 -0.965925 0.258822
vn 0.000001 -0.965926 -0.258819
vn 0.000001 -0.965926 -0.258819
vn 0.000001 -0.965926 -0.258819
vn 0.000001 -0.965926 -0.258819
vn 0.000001 -0.707114 -0.707100
vn 0.000001 -0.707114 -0.707100
vn 0.000001 -0.707114 -0.707100
vn 0.000001 -0.707114 -0.707100
vn -0.000000 -0.258819 -0.965926
vn -0.000000 -0.258819 -0.965926
vn 0.000000 1.000000 -0.000000
vn 0.000000 1.000000 -0.000000
s off
g pCylinder1
usemtl initialShadingGroup
f 1/13/1 2/14/2 14/27/3 13/26/4
s 1
f 2/14/5 3/15/6 15/28/7 14/27/8
s 2
f 3/15/9 4/16/10 16/29/11 15/28/12
s off
f 4/16/13 5/17/14 17/30/15 16/29/16
f 5/17/17 6/18/18 18/31/19 17/30/20
f 6/18/21 7/19/22 19/32/23 18/31/24
f 7/19/25 8/20/26 20/33/27 19/32/28
s 3
f 8/20/29 9/21/30 21/34/31 20/33/32
s 4
f 9/21/33 10/22/34 22/35/35 21/34/36
s off
f 10/22/37 11/23/38 23/36/39 22/35/40
f 11/23/41 12/24/42 24/37/43 23/36/44
f 12/24/45 1/25/46 13/38/47 24/37/48
s 5
f 2/2/49 1/1/50 25/51/51
f 3/3/52 2/2/49 25/51/51
f 4/4/53 3/3/52 25/51/51
f 5/5/54 4/4/53 25/51/51
f 6/6/55 5/5/54 25/51/51
f 7/7/56 6/6/55 25/51/51
f 8/8/57 7/7/56 25/51/51
f 9/9/58 8/8/57 25/51/51
f 10/10/59 9/9/58 25/51/51
f 11/11/60 10/10/59 25/51/51
f 12/12/61 11/11/60 25/51/51
f 1/1/50 12/12/61 25/51/51
s 6
f 43/69/62 44/70/63 45/72/64
f 44/70/63 46/71/65 45/72/64
s 7
f 51/73/66 52/74/67 53/75/68
f 52/74/67 54/76/69 53/75/68
f 54/76/69 55/77/70 53/75/68
f 55/77/70 56/78/71 53/75/68
f 56/78/71 57/79/72 53/75/68
f 57/79/72 58/80/73 53/75/68
s 6
f 47/81/74 48/82/75 45/72/64
f 48/82/75 49/83/76 45/72/64
f 49/83/76 50/84/77 45/72/64
f 50/84/77 43/69/62 45/72/64
s 9
f 13/49/78 14/48/79 28/54/80 27/53/81
s 1
f 14/48/8 15/47/7 30/55/82 28/54/83
s 10
f 15/47/84 26/52/85 29/56/86 30/55/87
s 4
f 21/41/36 22/40/35 32/58/88 31/57/89
s 10
f 26/52/85 21/41/90 31/57/91 29/56/86
s 9
f 22/40/92 23/39/93 33/59/94 32/58/95
f 23/39/93 24/50/96 34/60/97 33/59/94
f 24/50/96 13/49/78 27/53/81 34/60/97
s 2
f 15/47/12 16/46/11 36/62/98 35/61/99
s 12
f 26/52/100 15/47/101 35/61/102 37/63/103
s 13
f 16/46/104 17/45/105 38/64/106 36/62/107
f 17/45/105 18/44/108 39/65/109 38/64/106
f 18/44/108 19/43/110 40/66/111 39/65/109
f 19/43/110 20/42/112 41/67/113 40/66/111
s 3
f 20/42/32 21/41/31 42/68/114 41/67/115
s 12
f 21/41/116 26/52/100 37/63/103 42/68/117
s off
f 27/53/118 28/54/119 44/70/120 43/69/121
s 1
f 28/54/83 30/55/82 46/71/122 44/70/123
s 14
f 30/55/124 29/56/125 45/72/126 46/71/127
s 4
f 31/61/89 32/62/88 48/74/128 47/73/129
s 14
f 29/63/125 31/61/130 47/73/131 45/75/126
s off
f 32/62/132 33/64/133 49/76/134 48/74/135
f 33/64/136 34/65/137 50/77/138 49/76/139
f 34/65/140 27/66/141 43/78/142 50/77/143
s 2
f 35/66/99 36/67/98 52/79/144 51/78/145
s 15
f 37/67/146 35/68/147 51/80/148 53/79/149
s off
f 36/68/150 38/63/151 54/75/152 52/80/153
f 38/57/154 39/58/155 55/82/156 54/81/157
f 39/56/158 40/57/159 56/81/160 55/72/161
f 40/58/162 41/59/163 57/83/164 56/82/165
s 3
f 41/59/115 42/60/114 58/84/166 57/83/167
s 15
f 42/60/168 37/53/146 53/69/149 58/84/169
g default
v 2.700698 -0.404827 -0.037591
v 2.673180 -0.404827 -0.065110
v 2.635589 -0.404827 -0.075182
v 2.597998 -0.404827 -0.065110
v 2.570479 -0.404827 -0.037591
v 2.560407 -0.404827 0.000000
v 2.570479 -0.404827 0.037591
v 2.597998 -0.404827 0.065110
v 2.635589 -0.404827 0.075182
v 2.673180 -0.404827 0.065110
v 2.700698 -0.404827 0.037591
v 2.710771 -0.404827 0.000000
v 2.700698 0.404827 -0.037591
v 2.673180 0.404827 -0.065110
v 2.635589 0.404827 -0.075182
v 2.597998 0.404827 -0.065110
v 2.570479 0.404827 -0.037591
v 2.560407 0.404827 0.000000
v 2.570479 0.404827 0.037591
v 2.597998 0.404827 0.065110
v 2.635589 0.404827 0.075182
v 2.673180 0.404827 0.065110
v 2.700698 0.404827 0.037591
v 2.710771 0.404827 0.000000
v 2.635589 -0.404827 0.000000
v 2.635589 0.404827 0.000000
vt 0.635316 0.078125
vt 0.578125 0.020934
vt 0.500000 0.000000
vt 0.421875 0.020934
vt 0.364684 0.078125
vt 0.343750 0.156250
vt 0.364684 0.234375
vt 0.421875 0.291566
vt 0.500000 0.312500
vt 0.578125 0.291566
vt 0.635316 0.234375
vt 0.656250 0.156250
vt 0.375000 0.312500
vt 0.395833 0.312500
vt 0.416667 0.312500
vt 0.437500 0.312500
vt 0.458333 0.312500
vt 0.479167 0.312500
vt 0.500000 0.312500
vt 0.520833 0.312500
vt 0.541667 0.312500
vt 0.562500 0.312500
vt 0.583333 0.312500
vt 0.604167 0.312500
vt 0.625000 0.312500
vt 0.375000 0.688440
vt 0.395833 0.688440
vt 0.416667 0.688440
vt 0.437500 0.688440
vt 0.458333 0.688440
vt 0.479167 0.688440
vt 0.500000 0.688440
vt 0.520833 0.688440
vt 0.541667 0.688440
vt 0.562500 0.688440
vt 0.583333 0.688440
vt 0.604167 0.688440
vt 0.625000 0.688440
vt 0.635316 0.765625
vt 0.578125 0.708434
vt 0.500000 0.687500
vt 0.421875 0.708434
vt 0.364684 0.765625
vt 0.343750 0.843750
vt 0.364684 0.921875
vt 0.421875 0.979066
vt 0.500000 1.000000
vt 0.578125 0.979066
vt 0.635316 0.921875
vt 0.656250 0.843750
vt 0.500000 0.150000
vt 0.500000 0.837500
vn 0.707107 0.000000 -0.707107
vn 0.707107 0.000000 -0.707107
vn 0.707107 0.000000 -0.707107
vn 0.707107 0.000000 -0.707107
vn 0.258819 0.000000 -0.965926
vn 0.258819 0.000000 -0.965926
vn 0.258819 0.000000 -0.965926
vn 0.258819 0.000000 -0.965926
vn -0.258819 0.000000 -0.965926
vn -0.258819 0.000000 -0.965926
vn -0.258819 0.000000 -0.965926
vn -0.258819 0.000000 -0.965926
vn -0.707107 0.000000 -0.707107
vn -0.707107 0.000000 -0.707107
vn -0.707107 0.000000 -0.707107
vn -0.707107 0.000000 -0.707107
vn -0.965926 0.000000 -0.258819
vn -0.965926 0.000000 -0.258819
vn -0.965926 0.000000 -0.258819
vn -0.965926 0.000000 -0.258819
vn -0.965926 0.000000 0.258819
vn -0.965926 0.000000 0.258819
vn -0.965926 0.000000 0.258819
vn -0.965926 0.000000 0.258819
vn -0.707107 0.000000 0.707107
vn -0.707107 0.000000 0.707107
vn -0.707107 0.000000 0.707107
vn -0.707107 0.000000 0.707107
vn -0.258819 0.000000 0.965926
vn -0.258819 0.000000 0.965926
vn -0.258819 0.000000 0.965926
vn -0.258819 0.000000 0.965926
vn 0.258819 0.000000 0.965926
vn 0.258819 0.000000 0.965926
vn 0.258819 0.000000 0.965926
vn 0.258819 0.000000 0.965926
vn 0.707107 0.000000 0.707107
vn 0.707107 0.000000 0.707107
vn 0.707107 0.000000 0.707107
vn 0.707107 0.000000 0.707107
vn 0.965926 0.000000 0.258819
vn 0.965926 0.000000 0.258819
vn 0.965926 0.000000 0.258819
vn 0.965926 0.000000 0.258819
vn 0.965926 0.000000 -0.258819
vn 0.965926 0.000000 -0.258819
vn 0.965926 0.000000 -0.258819
vn 0.965926 0.000000 -0.258819
vn 0.000000 -1.000000 0.000000
vn 0.000000 -1.000000 0.000000
vn 0.000000 -1.000000 0.000000
vn 0.000000 -1.000000 0.000000
vn 0.000000 -1.000000 0.000000
vn 0.000000 -1.000000 0.000000
vn 0.000000 -1.000000 0.000000
vn 0.000000 -1.000000 0.000000
vn 0.000000 -1.000000 0.000000
vn 0.000000 -1.000000 0.000000
vn 0.000000 -1.000000 0.000000
vn 0.000000 -1.000000 0.000000
vn 0.000000 -1.000000 0.000000
vn 0.000000 1.000000 0.000000
vn 0.000000 1.000000 0.000000
vn 0.000000 1.000000 0.000000
vn 0.000000 1.000000 0.000000
vn 0.000000 1.000000 0.000000
vn 0.000000 1.000000 0.000000
vn 0.000000 1.000000 0.000000
vn 0.000000 1.000000 0.000000
vn 0.000000 1.000000 0.000000
vn 0.000000 1.000000 0.000000
vn 0.000000 1.000000 0.000000
vn 0.000000 1.000000 0.000000
vn 0.000000 1.000000 0.000000
s off
g pCylinder2
usemtl initialShadingGroup
f 59/97/170 60/98/171 72/111/172 71/110/173
f 60/98/174 61/99/175 73/112/176 72/111/177
f 61/99/178 62/100/179 74/113/180 73/112/181
f 62/100/182 63/101/183 75/114/184 74/113/185
f 63/101/186 64/102/187 76/115/188 75/114/189
f 64/102/190 65/103/191 77/116/192 76/115/193
f 65/103/194 66/104/195 78/117/196 77/116/197
f 66/104/198 67/105/199 79/118/200 78/117/201
f 67/105/202 68/106/203 80/119/204 79/118/205
f 68/106/206 69/107/207 81/120/208 80/119/209
f 69/107/210 70/108/211 82/121/212 81/120/213
f 70/108/214 59/109/215 71/122/216 82/121/217
s 1
f 60/86/218 59/85/219 83/135/220
f 61/87/221 60/86/218 83/135/220
f 62/88/222 61/87/221 83/135/220
f 63/89/223 62/88/222 83/135/220
f 64/90/224 63/89/223 83/135/220
f 65/91/225 64/90/224 83/135/220
f 66/92/226 65/91/225 83/135/220
f 67/93/227 66/92/226 83/135/220
f 68/94/228 67/93/227 83/135/220
f 69/95/229 68/94/228 83/135/220
f 70/96/230 69/95/229 83/135/220
f 59/85/219 70/96/230 83/135/220
s 2
f 71/133/231 72/132/232 84/136/233
f 72/132/232 73/131/234 84/136/233
f 73/131/234 74/130/235 84/136/233
f 74/130/235 75/129/236 84/136/233
f 75/129/236 76/128/237 84/136/233
f 76/128/237 77/127/238 84/136/233
f 77/127/238 78/126/239 84/136/233
f 78/126/239 79/125/240 84/136/233
f 79/125/240 80/124/241 84/136/233
f 80/124/241 81/123/242 84/136/233
f 81/123/242 82/134/243 84/136/233
f 82/134/243 71/133/231 84/136/233
