# This file uses centimeters as units for non-parametric coordinates.

mtllib LongSword.mtl
g default
v -0.125000 -5.011360 0.208311
v 0.125000 -5.011360 0.208311
v -0.125000 -4.795764 0.196356
v 0.125000 -4.795764 0.196356
v -0.125000 -4.795764 -0.196356
v 0.125000 -4.795764 -0.196356
v -0.125000 -5.011360 -0.208311
v 0.125000 -5.011360 -0.208311
v -0.090091 -4.795764 0.148389
v 0.090091 -4.795764 0.148389
v 0.090091 -4.795764 -0.148389
v -0.090091 -4.795764 -0.148389
v -0.090091 -4.021242 0.148389
v 0.090091 -4.021242 0.148389
v 0.090091 -4.021242 -0.148389
v -0.090091 -4.021242 -0.148389
v -0.090091 -2.914592 0.148389
v 0.090091 -2.914592 0.148389
v 0.090091 -2.914592 -0.148389
v -0.090091 -2.914592 -0.148389
v -0.090091 -2.755690 0.148389
v 0.090091 -2.755690 0.148389
v 0.090091 -2.755690 -0.148389
v -0.090091 -2.755690 -0.148389
v -0.090091 -2.914592 0.148389
v 0.090091 -2.914592 0.148389
v 0.090091 -2.755690 0.148389
v -0.090091 -2.755690 0.148389
v -0.090091 -2.914592 0.148389
v 0.090091 -2.914592 0.148389
v 0.090091 -2.755690 0.148389
v -0.090091 -2.755690 0.148389
v -0.090091 -2.914592 -0.148389
v 0.090091 -2.914592 -0.148389
v -0.090091 -2.755690 -0.148389
v 0.090091 -2.755690 -0.148389
v -0.090091 -2.859801 0.475563
v 0.090091 -2.859801 0.475563
v 0.090091 -2.710481 0.421216
v -0.090091 -2.710481 0.421216
v -0.090091 -2.696414 0.764267
v 0.090091 -2.696414 0.764267
v 0.090091 -2.574687 0.662126
v -0.090091 -2.574687 0.662126
v -0.090091 -2.859801 -0.475563
v 0.090091 -2.859801 -0.475563
v -0.090091 -2.710481 -0.421216
v 0.090091 -2.710481 -0.421216
v -0.090091 -2.696414 -0.764267
v 0.090091 -2.696414 -0.764267
v -0.090091 -2.574687 -0.662126
v 0.090091 -2.574687 -0.662126
v -0.090091 -2.755690 0.304522
v 0.090091 -2.755690 0.304522
v 0.090091 -2.755690 -0.304522
v -0.090091 -2.755690 -0.304522
v -0.090091 -2.069633 0.288216
v -0.090091 -1.299172 0.277871
v -0.090091 -0.417618 0.266294
v -0.090091 0.662236 0.250756
v -0.090091 1.760250 0.229217
v -0.090091 2.866449 0.207104
v -0.090091 3.991251 0.174178
v -0.090091 4.510889 0.132398
v -0.090091 4.870032 0.077541
v -0.090091 5.059255 0.010032
v 0.090091 -2.069633 0.288216
v 0.090091 -1.299172 0.277871
v 0.090091 -0.417618 0.266294
v 0.090091 0.662236 0.250756
v 0.090091 1.760250 0.229217
v 0.090091 2.866449 0.207104
v 0.090091 3.991251 0.174178
v 0.090091 4.510889 0.132398
v 0.090091 4.870032 0.077541
v 0.090091 5.059255 0.010032
v 0.090091 -2.069633 -0.288216
v 0.090091 -1.299172 -0.277871
v 0.090091 -0.417618 -0.266294
v 0.090091 0.662236 -0.250756
v 0.090091 1.760250 -0.229217
v 0.090091 2.866449 -0.207104
v 0.090091 3.991251 -0.174178
v 0.090091 4.510889 -0.132398
v 0.090091 4.870032 -0.077541
v 0.090091 5.059255 -0.010032
v -0.090091 -2.069633 -0.288216
v -0.090091 -1.299172 -0.277871
v -0.090091 -0.417618 -0.266294
v -0.090091 0.662236 -0.250756
v -0.090091 1.760250 -0.229217
v -0.090091 2.866449 -0.207104
v -0.090091 3.991251 -0.174178
v -0.090091 4.510889 -0.132398
v -0.090091 4.870032 -0.077541
v -0.090091 5.059255 -0.010032
v 0.125000 -5.059228 0.000000
v -0.125000 -5.059228 0.000000
vn 0.000000 0.055366 0.998466
vn 0.000000 0.055366 0.998466
vn 0.000000 0.055366 0.998466
vn 0.000000 0.055366 0.998466
vn 0.000000 1.000000 0.000000
vn 0.000000 1.000000 0.000000
vn 0.000000 1.000000 0.000000
vn 0.000000 1.000000 0.000000
vn 0.000000 0.055366 -0.998466
vn 0.000000 0.055366 -0.998466
vn 0.000000 0.055366 -0.998466
vn 0.000000 0.055366 -0.998466
vn 0.000000 -0.974600 -0.223953
vn 0.000000 -0.974600 -0.223953
vn 0.000000 -1.000000 0.000000
vn 0.000000 -1.000000 0.000000
vn 1.000000 0.000000 0.000000
vn 1.000000 0.000000 0.000000
vn 1.000000 0.000000 0.000000
vn 1.000000 0.000000 0.000000
vn 1.000000 0.000000 0.000000
vn -1.000000 0.000000 0.000000
vn -1.000000 0.000000 0.000000
vn -1.000000 0.000000 0.000000
vn -1.000000 0.000000 0.000000
vn -1.000000 0.000000 0.000000
vn 0.000000 1.000000 -0.000001
vn 0.000000 1.000000 -0.000001
vn 0.000000 1.000000 -0.000001
vn 0.000000 1.000000 -0.000001
vn 0.000000 1.000000 0.000001
vn 0.000000 1.000000 0.000001
vn 0.000000 1.000000 0.000001
vn 0.000000 1.000000 0.000001
vn 0.000000 0.000000 1.000000
vn 0.000000 0.000000 1.000000
vn 0.000000 0.000000 1.000000
vn 0.000000 0.000000 1.000000
vn 1.000000 0.000000 0.000000
vn 1.000000 0.000000 0.000000
vn 1.000000 0.000000 0.000000
vn 1.000000 0.000000 0.000000
vn 0.000000 0.000000 -1.000000
vn 0.000000 0.000000 -1.000000
vn 0.000000 0.000000 -1.000000
vn 0.000000 0.000000 -1.000000
vn -1.000000 0.000000 0.000000
vn -1.000000 0.000000 0.000000
vn -1.000000 0.000000 0.000000
vn -1.000000 0.000000 0.000000
vn 0.000000 0.000000 1.000000
vn 0.000000 0.000000 1.000000
vn 0.000000 0.000000 1.000000
vn 0.000000 0.000000 1.000000
vn 1.000000 0.000000 0.000000
vn 1.000000 0.000000 0.000000
vn 1.000000 0.000000 0.000000
vn 1.000000 0.000000 0.000000
vn 0.000000 0.000000 -1.000000
vn 0.000000 0.000000 -1.000000
vn 0.000000 0.000000 -1.000000
vn 0.000000 0.000000 -1.000000
vn -1.000000 0.000000 0.000000
vn -1.000000 0.000000 0.000000
vn -1.000000 0.000000 0.000000
vn -1.000000 0.000000 0.000000
vn 0.000000 0.642788 0.766044
vn 0.000000 0.642788 0.766044
vn 0.000000 0.642788 0.766044
vn 0.000000 0.642788 0.766044
vn 1.000000 0.000000 0.000000
vn 1.000000 0.000000 0.000000
vn 0.000000 0.642788 -0.766044
vn 0.000000 0.642788 -0.766044
vn 0.000000 0.642788 -0.766044
vn 0.000000 0.642788 -0.766044
vn -1.000000 0.000000 0.000000
vn -1.000000 0.000000 0.000000
vn 0.000000 0.000000 0.000000
vn 0.000000 0.000000 0.000000
vn 0.000000 0.000000 0.000000
vn 0.000000 0.000000 0.000000
vn 0.000000 0.000000 0.000000
vn 0.000000 0.000000 0.000000
vn 0.000000 0.000000 0.000000
vn 0.000000 0.000000 0.000000
vn 0.000000 0.000000 0.000000
vn 0.000000 0.000000 0.000000
vn 0.000000 0.000000 0.000000
vn 0.000000 0.000000 0.000000
vn 0.000000 0.000000 0.000000
vn 0.000000 0.000000 0.000000
vn 0.000000 0.000000 0.000000
vn 0.000000 0.000000 0.000000
vn 0.000000 0.000000 0.000000
vn 0.000000 0.000000 0.000000
vn 0.000000 0.000000 0.000000
vn 0.000000 0.000000 0.000000
vn 0.000000 0.000000 0.000000
vn 0.000000 0.000000 0.000000
vn 0.000000 0.000000 0.000000
vn 0.000000 0.000000 0.000000
vn 0.000000 0.000000 0.000000
vn 0.000000 0.000000 0.000000
vn 0.000000 0.000000 0.000000
vn 0.000000 0.000000 0.000000
vn 0.000000 0.000000 0.000000
vn 0.000000 0.000000 0.000000
vn 0.000000 0.000000 0.000000
vn 0.000000 0.000000 0.000000
vn 0.000000 0.000000 0.000000
vn 0.000000 0.000000 0.000000
vn 0.000000 0.000000 0.000000
vn 0.000000 0.000000 0.000000
vn 0.000000 0.000000 0.000000
vn 0.000000 0.000000 0.000000
vn 0.000000 0.000000 0.000000
vn 0.000000 0.000000 0.000000
vn 0.000000 0.000000 0.000000
vn 0.000000 0.000000 0.000000
vn 0.000000 0.000000 0.000000
vn 0.000000 0.000000 0.000000
vn 0.000000 0.000000 0.000000
vn 0.000000 0.000000 0.000000
vn 0.000000 0.000000 0.000000
vn 0.000000 0.000000 0.000000
vn 0.000000 -0.986265 0.165169
vn 0.000000 -0.986265 0.165169
vn 0.000000 -0.942600 0.333923
vn 0.000000 -0.942600 0.333923
vn 1.000000 0.000000 0.000000
vn 1.000000 0.000000 0.000000
vn 1.000000 0.000000 0.000000
vn 1.000000 0.000000 0.000000
vn 0.000000 0.986548 -0.163475
vn 0.000000 0.986548 -0.163475
vn 0.000000 0.943172 -0.332304
vn 0.000000 0.943172 -0.332304
vn -1.000000 0.000000 0.000000
vn -1.000000 0.000000 0.000000
vn -1.000000 0.000000 0.000000
vn -1.000000 0.000000 0.000000
vn 0.000000 -0.870295 0.492531
vn 0.000000 -0.870295 0.492531
vn 1.000000 0.000000 0.000000
vn 1.000000 0.000000 0.000000
vn 0.000000 0.871139 -0.491036
vn 0.000000 0.871139 -0.491036
vn -1.000000 0.000000 0.000000
vn -1.000000 0.000000 0.000000
vn 0.000000 -0.986265 -0.165169
vn 0.000000 -0.986265 -0.165169
vn 0.000000 -0.942600 -0.333923
vn 0.000000 -0.942600 -0.333923
vn -1.000000 0.000000 0.000000
vn -1.000000 0.000000 0.000000
vn -1.000000 0.000000 0.000000
vn -1.000000 0.000000 0.000000
vn 0.000000 0.986548 0.163475
vn 0.000000 0.986548 0.163475
vn 0.000000 0.943172 0.332304
vn 0.000000 0.943172 0.332304
vn 1.000000 0.000000 0.000000
vn 1.000000 0.000000 0.000000
vn 1.000000 0.000000 0.000000
vn 1.000000 0.000000 0.000000
vn 0.000000 -0.870295 -0.492531
vn 0.000000 -0.870295 -0.492531
vn -1.000000 0.000000 0.000000
vn -1.000000 0.000000 0.000000
vn 0.000000 0.871139 0.491036
vn 0.000000 0.871139 0.491036
vn 1.000000 0.000000 0.000000
vn 1.000000 0.000000 0.000000
vn 0.000000 -1.000000 0.000000
vn 0.000000 -1.000000 0.000000
vn 0.000000 -1.000000 0.000000
vn 0.000000 -1.000000 0.000000
vn 0.000000 0.000000 0.000000
vn 0.000000 0.000000 0.000000
vn 0.000000 0.000000 0.000000
vn 0.000000 0.000000 0.000000
vn 0.000000 -1.000000 0.000000
vn 0.000000 -1.000000 0.000000
vn 0.000000 -1.000000 0.000000
vn 0.000000 -1.000000 0.000000
vn 0.000000 0.000000 0.000000
vn 0.000000 0.000000 0.000000
vn 0.000000 0.000000 0.000000
vn 0.000000 0.000000 0.000000
vn 0.000000 0.023760 0.999718
vn 0.000000 0.023760 0.999718
vn 0.000000 0.018295 0.999833
vn 0.000000 0.018295 0.999833
vn 0.000000 0.013269 0.999912
vn 0.000000 0.013269 0.999912
vn 0.000000 0.013823 0.999904
vn 0.000000 0.013823 0.999904
vn 0.000000 0.017022 0.999855
vn 0.000000 0.017022 0.999855
vn 0.000000 0.019800 0.999804
vn 0.000000 0.019800 0.999804
vn 0.000000 0.024663 0.999696
vn 0.000000 0.024663 0.999696
vn 0.000000 0.045383 0.998970
vn 0.000000 0.045383 0.998970
vn 0.000000 0.109308 0.994008
vn 0.000000 0.109308 0.994008
vn 0.000000 0.217791 0.975996
vn 0.000000 0.217791 0.975996
vn 0.000000 0.336026 0.941853
vn 0.000000 0.336026 0.941853
vn 1.000000 -0.000000 0.000000
vn 1.000000 -0.000000 0.000000
vn 1.000000 0.000000 0.000000
vn 1.000000 0.000000 0.000000
vn 1.000000 -0.000000 0.000000
vn 1.000000 -0.000000 0.000000
vn 1.000000 -0.000000 0.000000
vn 1.000000 -0.000000 0.000000
vn 1.000000 0.000000 0.000000
vn 1.000000 0.000000 0.000000
vn 1.000000 0.000000 0.000000
vn 1.000000 0.000000 0.000000
vn 1.000000 -0.000000 0.000000
vn 1.000000 -0.000000 0.000000
vn 1.000000 0.000000 0.000000
vn 1.000000 0.000000 0.000000
vn 1.000000 -0.000000 0.000000
vn 1.000000 -0.000000 0.000000
vn 1.000000 -0.000000 0.000000
vn 1.000000 -0.000000 0.000000
vn 1.000000 -0.000000 0.000000
vn 1.000000 -0.000000 0.000000
vn 0.000000 0.023760 -0.999718
vn 0.000000 0.023760 -0.999718
vn 0.000000 0.018295 -0.999833
vn 0.000000 0.018295 -0.999833
vn 0.000000 0.013269 -0.999912
vn 0.000000 0.013269 -0.999912
vn 0.000000 0.013823 -0.999904
vn 0.000000 0.013823 -0.999904
vn 0.000000 0.017022 -0.999855
vn 0.000000 0.017022 -0.999855
vn 0.000000 0.019800 -0.999804
vn 0.000000 0.019800 -0.999804
vn 0.000000 0.024663 -0.999696
vn 0.000000 0.024663 -0.999696
vn 0.000000 0.045383 -0.998970
vn 0.000000 0.045383 -0.998970
vn 0.000000 0.109308 -0.994008
vn 0.000000 0.109308 -0.994008
vn 0.000000 0.217791 -0.975996
vn 0.000000 0.217791 -0.975996
vn 0.000000 0.336026 -0.941853
vn 0.000000 0.336026 -0.941853
vn -1.000000 -0.000000 0.000000
vn -1.000000 -0.000000 0.000000
vn -1.000000 0.000000 0.000000
vn -1.000000 0.000000 0.000000
vn -1.000000 -0.000000 0.000000
vn -1.000000 -0.000000 0.000000
vn -1.000000 -0.000000 0.000000
vn -1.000000 -0.000000 0.000000
vn -1.000000 0.000000 0.000000
vn -1.000000 0.000000 0.000000
vn -1.000000 0.000000 0.000000
vn -1.000000 0.000000 0.000000
vn -1.000000 -0.000000 0.000000
vn -1.000000 -0.000000 0.000000
vn -1.000000 0.000000 0.000000
vn -1.000000 0.000000 0.000000
vn -1.000000 -0.000000 0.000000
vn -1.000000 -0.000000 0.000000
vn -1.000000 -0.000000 0.000000
vn -1.000000 -0.000000 0.000000
vn -1.000000 -0.000000 0.000000
vn -1.000000 -0.000000 0.000000
vn 0.000000 -0.974600 0.223953
vn 0.000000 -0.974600 0.223953
s off
g pCube2
usemtl initialShadingGroup
f 1//1 2//2 4//3 3//4
f 66//5 76//6 86//7 96//8
f 5//9 6//10 8//11 7//12
s 1
f 7//13 8//14 97//15 98//16
s off
f 2//17 97//18 8//19 6//20 4//21
f 7//22 98//23 1//24 3//25 5//26
s 2
f 3//27 4//28 10//29 9//30
f 4//28 6//31 11//32 10//29
f 6//31 5//33 12//34 11//32
f 5//33 3//27 9//30 12//34
s off
f 9//35 10//36 14//37 13//38
f 10//39 11//40 15//41 14//42
f 11//43 12//44 16//45 15//46
f 12//47 9//48 13//49 16//50
f 13//51 14//52 18//53 17//54
s 3
f 14//55 15//56 19//57 18//58
s off
f 15//59 16//60 20//61 19//62
s 4
f 16//63 13//64 17//65 20//66
s off
f 41//67 42//68 43//69 44//70
s 3
f 18//58 19//57 23//71 22//72
s off
f 50//73 49//74 51//75 52//76
s 4
f 20//66 17//65 21//77 24//78
s off
f 17//79 18//80 26//81 25//82
f 18//83 22//84 27//85 26//86
f 22//87 21//88 28//89 27//90
f 21//91 17//92 25//93 28//94
f 25//95 26//96 30//97 29//98
f 26//99 27//100 31//101 30//102
f 27//103 28//104 32//105 31//106
f 28//107 25//108 29//109 32//110
f 19//111 20//112 33//113 34//114
f 20//115 24//116 35//117 33//118
f 24//119 23//120 36//121 35//122
f 23//123 19//124 34//125 36//126
s 5
f 29//127 30//128 38//129 37//130
s 6
f 30//131 31//132 39//133 38//134
s 7
f 31//135 32//136 40//137 39//138
s 8
f 32//139 29//140 37//141 40//142
s 5
f 37//130 38//129 42//143 41//144
s 6
f 38//134 39//133 43//145 42//146
s 7
f 39//138 40//137 44//147 43//148
s 8
f 40//142 37//141 41//149 44//150
s 9
f 34//151 33//152 45//153 46//154
s 10
f 33//155 35//156 47//157 45//158
s 11
f 35//159 36//160 48//161 47//162
s 12
f 36//163 34//164 46//165 48//166
s 9
f 46//154 45//153 49//167 50//168
s 10
f 45//158 47//157 51//169 49//170
s 11
f 47//162 48//161 52//171 51//172
s 12
f 48//166 46//165 50//173 52//174
s off
f 21//175 22//176 54//177 53//178
f 22//179 23//180 55//181 54//182
f 23//183 24//184 56//185 55//186
f 24//187 21//188 53//189 56//190
s 13
f 53//191 54//192 67//193 57//194
f 57//194 67//193 68//195 58//196
f 58//196 68//195 69//197 59//198
f 59//198 69//197 70//199 60//200
f 60//200 70//199 71//201 61//202
f 61//202 71//201 72//203 62//204
f 62//204 72//203 73//205 63//206
f 63//206 73//205 74//207 64//208
f 64//208 74//207 75//209 65//210
f 65//210 75//209 76//211 66//212
s 14
f 54//213 55//214 77//215 67//216
f 67//216 77//215 78//217 68//218
f 68//218 78//217 79//219 69//220
f 69//220 79//219 80//221 70//222
f 70//222 80//221 81//223 71//224
f 71//224 81//223 82//225 72//226
f 72//226 82//225 83//227 73//228
f 73//228 83//227 84//229 74//230
f 74//230 84//229 85//231 75//232
f 75//232 85//231 86//233 76//234
s 15
f 55//235 56//236 87//237 77//238
f 77//238 87//237 88//239 78//240
f 78//240 88//239 89//241 79//242
f 79//242 89//241 90//243 80//244
f 80//244 90//243 91//245 81//246
f 81//246 91//245 92//247 82//248
f 82//248 92//247 93//249 83//250
f 83//250 93//249 94//251 84//252
f 84//252 94//251 95//253 85//254
f 85//254 95//253 96//255 86//256
s 16
f 56//257 53//258 57//259 87//260
f 87//260 57//259 58//261 88//262
f 88//262 58//261 59//263 89//264
f 89//264 59//263 60//265 90//266
f 90//266 60//265 61//267 91//268
f 91//268 61//267 62//269 92//270
f 92//270 62//269 63//271 93//272
f 93//272 63//271 64//273 94//274
f 94//274 64//273 65//275 95//276
f 95//276 65//275 66//277 96//278
s 1
f 98//16 97//15 2//279 1//280
