# This file uses centimeters as units for non-parametric coordinates.

mtllib Thermometer hand.mtl
g default
v 0.038397 0.115895 0.050000
v 0.211603 0.115895 0.050000
v 0.125000 0.115895 -0.100000
v 0.125000 0.115895 0.100000
v 0.211603 0.115895 -0.050000
v 0.038397 0.115895 -0.050000
v 0.125000 0.115895 0.000000
v 0.025000 0.115895 0.000000
v 0.075000 0.115895 0.086603
v 0.125000 0.115895 0.050000
v 0.081699 0.115895 -0.025000
v 0.081699 0.115895 0.025000
v 0.175000 0.115895 0.086603
v 0.225000 0.115895 -0.000000
v 0.168301 0.115895 -0.025000
v 0.168301 0.115895 0.025000
v 0.175000 0.115895 -0.086603
v 0.075000 0.115895 -0.086603
v 0.125000 0.115895 -0.050000
v 0.060048 0.115895 -0.037500
v 0.028407 0.115895 -0.025882
v 0.053349 0.115895 0.012500
v 0.081699 0.115895 0.000000
v 0.056699 0.115895 -0.012500
v 0.028407 0.115895 0.025882
v 0.054289 0.115895 0.070711
v 0.078349 0.115895 0.055801
v 0.055024 0.115895 0.040401
v 0.099118 0.115895 0.096593
v 0.125000 0.115895 0.075000
v 0.103349 0.115895 0.037500
v 0.101675 0.115895 0.065401
v 0.125000 0.115895 0.025000
v 0.103349 0.115895 -0.012500
v 0.103349 0.115895 0.012500
v 0.150882 0.115895 0.096593
v 0.171651 0.115895 0.055801
v 0.146651 0.115895 0.037500
v 0.148325 0.115895 0.065401
v 0.195711 0.115895 0.070711
v 0.221593 0.115895 0.025882
v 0.196651 0.115895 0.012500
v 0.194976 0.115895 0.040401
v 0.221593 0.115895 -0.025882
v 0.189952 0.115895 -0.037500
v 0.168301 0.115895 -0.000000
v 0.193301 0.115895 -0.012500
v 0.146651 0.115895 -0.012500
v 0.146651 0.115895 0.012500
v 0.195711 0.115895 -0.070711
v 0.150000 0.115895 -0.068301
v 0.146651 0.115895 -0.037500
v 0.169976 0.115895 -0.052901
v 0.150882 0.115895 -0.096593
v 0.099118 0.115895 -0.096593
v 0.100000 0.115895 -0.068301
v 0.125000 0.115895 -0.080801
v 0.054289 0.115895 -0.070711
v 0.103349 0.115895 -0.037500
v 0.080024 0.115895 -0.052901
v 0.125000 0.115895 -0.025000
v 0.081699 0.156032 0.000000
v 0.081699 0.156032 -0.025000
v 0.060048 0.156032 -0.037500
v 0.056699 0.156032 -0.012500
v 0.038397 0.156032 -0.050000
v 0.028407 0.156032 -0.025882
v 0.025000 0.156032 0.000000
v 0.053349 0.156032 0.012500
v 0.081699 0.156032 0.025000
v 0.028407 0.156032 0.025882
v 0.055024 0.156032 0.040401
v 0.038397 0.156032 0.050000
v 0.054289 0.156032 0.070711
v 0.075000 0.156032 0.086603
v 0.078349 0.156032 0.055801
v 0.099118 0.156032 0.096593
v 0.101675 0.156032 0.065401
v 0.125000 0.156032 0.100000
v 0.125000 0.156032 0.075000
v 0.125000 0.156032 0.050000
v 0.103349 0.156032 0.037500
v 0.125000 0.156032 0.025000
v 0.103349 0.156032 0.012500
v 0.125000 0.156032 -0.000000
v 0.103349 0.156032 -0.012500
v 0.146651 0.156032 0.037500
v 0.148325 0.156032 0.065401
v 0.150882 0.156032 0.096593
v 0.175000 0.156032 0.086603
v 0.171651 0.156032 0.055801
v 0.168301 0.156032 0.025000
v 0.195711 0.156032 0.070711
v 0.194976 0.156032 0.040401
v 0.211603 0.156032 0.050000
v 0.221593 0.156032 0.025882
v 0.225000 0.156032 -0.000000
v 0.196651 0.156032 0.012500
v 0.221593 0.156032 -0.025882
v 0.193301 0.156032 -0.012500
v 0.211603 0.156032 -0.050000
v 0.189952 0.156032 -0.037500
v 0.168301 0.156032 -0.025000
v 0.168301 0.156032 -0.000000
v 0.146651 0.156032 -0.012500
v 0.146651 0.156032 0.012500
v 0.146651 0.156032 -0.037500
v 0.169976 0.156032 -0.052901
v 0.195711 0.156032 -0.070711
v 0.175000 0.156032 -0.086603
v 0.150000 0.156032 -0.068301
v 0.125000 0.156032 -0.050000
v 0.150882 0.156032 -0.096593
v 0.125000 0.156032 -0.080801
v 0.125000 0.156032 -0.100000
v 0.099118 0.156032 -0.096593
v 0.075000 0.156032 -0.086603
v 0.100000 0.156032 -0.068301
v 0.054289 0.156032 -0.070711
v 0.080024 0.156032 -0.052901
v 0.103349 0.156032 -0.037500
v 0.125000 0.156032 -0.025000
v -0.283954 0.115895 0.826108
v -0.284784 0.115895 0.828111
v -0.284784 0.156032 0.828111
v -0.283954 0.156032 0.826108
v -0.285067 0.115895 0.830261
v -0.285067 0.156032 0.830261
v -0.284784 0.115895 0.832411
v -0.284784 0.156032 0.832411
v -0.283954 0.115895 0.834414
v -0.283954 0.156032 0.834414
v -0.282634 0.115895 0.836135
v -0.282634 0.156032 0.836135
v -0.280914 0.115895 0.837455
v -0.280914 0.156032 0.837455
v -0.278910 0.115895 0.838285
v -0.278910 0.156032 0.838285
v -0.276760 0.115895 0.838568
v -0.276760 0.156032 0.838568
v -0.274610 0.115895 0.838285
v -0.274610 0.156032 0.838285
v -0.272607 0.115895 0.837455
v -0.272607 0.156032 0.837455
v -0.270886 0.115895 0.836135
v -0.270886 0.156032 0.836135
v -0.282634 0.115895 0.824387
v -0.282634 0.156032 0.824387
vt 0.066987 0.250000
vt 0.933013 0.250000
vt 0.500000 1.000000
vt 0.500000 0.000000
vt 0.933013 0.750000
vt 0.066987 0.750000
vt 0.500000 0.500000
vt 0.000000 0.500000
vt 0.250000 0.066987
vt 0.500000 0.250000
vt 0.283494 0.625000
vt 0.283494 0.375000
vt 0.750000 0.066987
vt 1.000000 0.500000
vt 0.716506 0.625000
vt 0.716506 0.375000
vt 0.750000 0.933013
vt 0.250000 0.933013
vt 0.500000 0.750000
vt 0.175240 0.687500
vt 0.017037 0.629409
vt 0.141747 0.437500
vt 0.283494 0.500000
vt 0.158494 0.562500
vt 0.017037 0.370590
vt 0.146447 0.146447
vt 0.266747 0.220994
vt 0.150120 0.297997
vt 0.370591 0.017037
vt 0.500000 0.125000
vt 0.391747 0.312500
vt 0.383373 0.172997
vt 0.500000 0.375000
vt 0.391747 0.562500
vt 0.391747 0.437500
vt 0.629410 0.017037
vt 0.733253 0.220994
vt 0.608253 0.312500
vt 0.616627 0.172997
vt 0.853553 0.146447
vt 0.982963 0.370591
vt 0.858253 0.437500
vt 0.849880 0.297997
vt 0.982963 0.629410
vt 0.824759 0.687500
vt 0.716506 0.500000
vt 0.841506 0.562500
vt 0.608253 0.562500
vt 0.608253 0.437500
vt 0.853553 0.853553
vt 0.625000 0.841506
vt 0.608253 0.687500
vt 0.724880 0.764503
vt 0.629409 0.982963
vt 0.370590 0.982963
vt 0.375000 0.841506
vt 0.500000 0.904006
vt 0.146447 0.853553
vt 0.391747 0.687500
vt 0.275120 0.764503
vt 0.500000 0.625000
vt 0.283494 0.500000
vt 0.283494 0.625000
vt 0.175240 0.687500
vt 0.158494 0.562500
vt 0.066987 0.750000
vt 0.017037 0.629409
vt 0.000000 0.500000
vt 0.141747 0.437500
vt 0.283494 0.375000
vt 0.017037 0.370590
vt 0.150120 0.297997
vt 0.066987 0.250000
vt 0.146447 0.146447
vt 0.250000 0.066987
vt 0.266747 0.220994
vt 0.370591 0.017037
vt 0.383373 0.172997
vt 0.500000 0.000000
vt 0.500000 0.125000
vt 0.500000 0.250000
vt 0.391747 0.312500
vt 0.500000 0.375000
vt 0.391747 0.437500
vt 0.500000 0.500000
vt 0.391747 0.562500
vt 0.608253 0.312500
vt 0.616627 0.172997
vt 0.629410 0.017037
vt 0.750000 0.066987
vt 0.733253 0.220994
vt 0.716506 0.375000
vt 0.853553 0.146447
vt 0.849880 0.297997
vt 0.933013 0.250000
vt 0.982963 0.370591
vt 1.000000 0.500000
vt 0.858253 0.437500
vt 0.982963 0.629410
vt 0.841506 0.562500
vt 0.933013 0.750000
vt 0.824759 0.687500
vt 0.716506 0.625000
vt 0.716506 0.500000
vt 0.608253 0.562500
vt 0.608253 0.437500
vt 0.608253 0.687500
vt 0.724880 0.764503
vt 0.853553 0.853553
vt 0.750000 0.933013
vt 0.625000 0.841506
vt 0.500000 0.750000
vt 0.629409 0.982963
vt 0.500000 0.904006
vt 0.500000 1.000000
vt 0.370590 0.982963
vt 0.250000 0.933013
vt 0.375000 0.841506
vt 0.146447 0.853553
vt 0.275120 0.764503
vt 0.391747 0.687500
vt 0.500000 0.625000
vt 0.066987 0.750000
vt 0.017037 0.629409
vt 0.000000 0.500000
vt 0.017037 0.370590
vt 0.066987 0.250000
vt 0.146447 0.146447
vt 0.250000 0.066987
vt 0.370591 0.017037
vt 0.500000 0.000000
vt 0.629410 0.017037
vt 0.750000 0.066987
vt 0.853553 0.146447
vt 0.933013 0.250000
vt 0.982963 0.370591
vt 1.000000 0.500000
vt 0.982963 0.629410
vt 0.933013 0.750000
vt 0.853553 0.853553
vt 0.750000 0.933013
vt 0.629409 0.982963
vt 0.500000 1.000000
vt 0.370590 0.982963
vt 0.250000 0.933013
vt 0.146447 0.853553
vt 0.066987 0.750000
vt 0.017037 0.629409
vt 0.017037 0.629409
vt 0.066987 0.750000
vt 0.000000 0.500000
vt 0.000000 0.500000
vt 0.017037 0.370590
vt 0.017037 0.370590
vt 0.066987 0.250000
vt 0.066987 0.250000
vt 0.146447 0.146447
vt 0.146447 0.146447
vt 0.250000 0.066987
vt 0.250000 0.066987
vt 0.370591 0.017037
vt 0.370591 0.017037
vt 0.500000 0.000000
vt 0.500000 0.000000
vt 0.629410 0.017037
vt 0.629410 0.017037
vt 0.750000 0.066987
vt 0.750000 0.066987
vt 0.853553 0.146447
vt 0.853553 0.146447
vt 0.146447 0.853553
vt 0.146447 0.853553
vn 0.000000 1.000000 -0.000000
vn 0.000000 1.000000 0.000000
vn 0.000001 1.000000 0.000001
vn 0.000001 1.000000 0.000000
vn 0.000001 1.000000 0.000001
vn 0.000001 1.000000 0.000000
vn 0.000000 1.000000 0.000000
vn 0.000001 1.000000 -0.000000
vn 0.000000 1.000000 -0.000000
vn 0.000000 1.000000 0.000000
vn 0.000001 1.000000 -0.000001
vn 0.000000 1.000000 0.000000
vn 0.000000 1.000000 -0.000000
vn 0.000000 1.000000 -0.000000
vn 0.000000 1.000000 -0.000001
vn 0.000000 1.000000 -0.000000
vn 0.000000 1.000000 -0.000001
vn 0.000000 1.000000 -0.000000
vn 0.000000 1.000000 -0.000001
vn 0.000000 1.000000 0.000000
vn 0.000000 1.000000 0.000000
vn 0.000000 1.000000 0.000000
vn 0.000000 1.000000 0.000000
vn 0.000000 1.000000 0.000000
vn 0.000000 1.000000 0.000000
vn 0.000000 1.000000 0.000000
vn -0.000000 1.000000 -0.000001
vn -0.000000 1.000000 -0.000000
vn -0.000000 1.000000 -0.000000
vn -0.000000 1.000000 -0.000001
vn 0.000000 1.000000 0.000000
vn -0.000001 1.000000 -0.000001
vn -0.000001 1.000000 -0.000001
vn -0.000002 1.000000 -0.000001
vn -0.000002 1.000000 -0.000000
vn -0.000002 1.000000 0.000000
vn -0.000001 1.000000 -0.000000
vn -0.000002 1.000000 0.000000
vn -0.000001 1.000000 0.000000
vn -0.000001 1.000000 0.000001
vn -0.000001 1.000000 0.000001
vn 0.000000 1.000000 0.000000
vn 0.000000 1.000000 -0.000000
vn 0.000000 1.000000 0.000000
vn 0.000000 1.000000 0.000000
vn 0.000000 1.000000 0.000000
vn -0.000001 1.000000 0.000001
vn -0.000001 1.000000 0.000001
vn -0.000001 1.000000 0.000001
vn -0.000000 1.000000 0.000001
vn 0.000000 1.000000 0.000000
vn -0.000001 1.000000 0.000002
vn 0.000000 1.000000 0.000001
vn 0.000000 1.000000 0.000003
vn 0.000001 1.000000 0.000002
vn 0.000001 1.000000 0.000001
vn 0.000000 1.000000 0.000001
vn 0.000001 1.000000 0.000001
vn 0.000001 1.000000 0.000001
vn 0.000000 1.000000 0.000000
vn 0.000000 1.000000 0.000000
vn 0.000000 -1.000000 0.000000
vn 0.000000 -1.000000 0.000000
vn 0.000000 -1.000000 0.000000
vn 0.000000 -1.000000 0.000000
vn 0.000000 -1.000000 0.000000
vn 0.000000 -1.000000 0.000000
vn 0.000000 -1.000000 0.000000
vn 0.000000 -1.000000 0.000000
vn 0.000000 -1.000000 0.000000
vn 0.000000 -1.000000 0.000000
vn 0.000000 -1.000000 0.000000
vn 0.000000 -1.000000 0.000000
vn 0.000000 -1.000000 0.000000
vn 0.000000 -1.000000 0.000000
vn 0.000000 -1.000000 0.000000
vn 0.000000 -1.000000 0.000000
vn 0.000000 -1.000000 0.000000
vn 0.000000 -1.000000 0.000000
vn 0.000000 -1.000000 0.000000
vn 0.000000 -1.000000 0.000000
vn 0.000000 -1.000000 0.000000
vn 0.000000 -1.000000 0.000000
vn 0.000000 -1.000000 0.000000
vn 0.000000 -1.000000 0.000000
vn 0.000000 -1.000000 0.000000
vn 0.000000 -1.000000 0.000000
vn 0.000000 -1.000000 0.000000
vn 0.000000 -1.000000 0.000000
vn 0.000000 -1.000000 0.000000
vn 0.000000 -1.000000 0.000000
vn 0.000000 -1.000000 0.000000
vn 0.000000 -1.000000 0.000000
vn 0.000000 -1.000000 0.000000
vn 0.000000 -1.000000 0.000000
vn 0.000000 -1.000000 0.000000
vn 0.000000 -1.000000 0.000000
vn 0.000000 -1.000000 0.000000
vn 0.000000 -1.000000 0.000000
vn 0.000000 -1.000000 0.000000
vn 0.000000 -1.000000 0.000000
vn 0.000000 -1.000000 0.000000
vn 0.000000 -1.000000 0.000000
vn 0.000000 -1.000000 0.000000
vn 0.000000 -1.000000 0.000000
vn 0.000000 -1.000000 0.000000
vn 0.000000 -1.000000 0.000000
vn 0.000000 -1.000000 0.000000
vn 0.000000 -1.000000 0.000000
vn 0.000000 -1.000000 0.000000
vn 0.000000 -1.000000 0.000000
vn 0.000000 -1.000000 0.000000
vn 0.000000 -1.000000 0.000000
vn 0.000000 -1.000000 0.000000
vn 0.000000 -1.000000 0.000000
vn 0.000000 -1.000000 0.000000
vn 0.000000 -1.000000 0.000000
vn 0.000000 -1.000000 0.000000
vn 0.000000 -1.000000 0.000000
vn 0.000000 -1.000000 0.000000
vn 0.000000 -1.000000 0.000000
vn 0.000000 -1.000000 0.000000
vn -0.866029 0.000000 -0.499995
vn -0.965924 0.000000 -0.258825
vn -0.965924 0.000000 -0.258825
vn -0.866029 0.000000 -0.499995
vn -1.000000 0.000000 0.000000
vn -1.000000 0.000000 0.000000
vn -0.965923 0.000000 0.258829
vn -0.965923 0.000000 0.258829
vn -0.866032 0.000000 0.499989
vn -0.866032 0.000000 0.499989
vn -0.707104 0.000000 0.707109
vn -0.707104 0.000000 0.707109
vn -0.499972 0.000000 0.866042
vn -0.499972 0.000000 0.866042
vn -0.258831 0.000000 0.965923
vn -0.258831 0.000000 0.965923
vn 0.000000 0.000000 1.000000
vn 0.000000 0.000000 1.000000
vn 0.258831 0.000000 0.965923
vn 0.258831 0.000000 0.965923
vn 0.499974 0.000000 0.866040
vn 0.499974 0.000000 0.866040
vn 0.853405 0.000000 0.521249
vn 0.853405 0.000000 0.521249
vn 0.852280 0.000000 0.523086
vn 0.866025 0.000000 0.500000
vn 0.866025 0.000000 0.500000
vn 0.852280 0.000000 0.523086
vn 0.965926 0.000000 0.258819
vn 0.965926 0.000000 0.258819
vn 1.000000 0.000000 -0.000001
vn 1.000000 0.000000 -0.000001
vn 0.965926 0.000000 -0.258819
vn 0.965926 0.000000 -0.258819
vn 0.866026 0.000000 -0.500000
vn 0.866026 0.000000 -0.500000
vn 0.707107 0.000000 -0.707107
vn 0.707107 0.000000 -0.707107
vn 0.500000 0.000000 -0.866026
vn 0.500000 0.000000 -0.866026
vn 0.258819 0.000000 -0.965926
vn 0.258819 0.000000 -0.965926
vn -0.000000 0.000000 -1.000000
vn -0.000000 0.000000 -1.000000
vn -0.258819 0.000000 -0.965926
vn -0.258819 0.000000 -0.965926
vn -0.500000 0.000000 -0.866025
vn -0.500000 0.000000 -0.866025
vn -0.608761 0.000000 -0.793353
vn -0.608761 0.000000 -0.793353
vn -0.935663 0.000000 -0.352894
vn -0.935663 0.000000 -0.352894
vn 0.000000 1.000000 0.000000
vn 0.000000 1.000000 0.000000
vn 0.000000 1.000000 0.000000
vn 0.000000 1.000000 0.000000
vn 0.000000 -1.000000 -0.000005
vn 0.000000 -1.000000 0.000000
vn 0.000000 -1.000000 -0.000002
vn 0.000000 -1.000000 -0.000005
vn 0.000000 -1.000000 0.000000
vn 0.000000 -1.000000 0.000000
vn 0.000000 1.000000 0.000000
vn 0.000000 1.000000 0.000000
vn 0.000000 -1.000000 0.000000
vn 0.000000 1.000000 0.000000
vn 0.000000 -1.000000 0.000000
vn 0.000000 1.000000 0.000000
vn 0.000000 -1.000000 0.000000
vn 0.000000 1.000000 0.000000
vn 0.000000 -1.000000 0.000000
vn 0.000000 1.000000 -0.000000
vn 0.000000 -1.000000 0.000000
vn 0.000000 1.000000 -0.000000
vn 0.000000 -1.000000 0.000000
vn 0.000000 1.000000 0.000000
vn 0.000000 -1.000000 0.000000
vn 0.000000 1.000000 0.000000
vn 0.000000 -1.000000 0.000000
vn 0.000000 1.000000 0.000000
vn 0.000000 -1.000000 0.000000
vn 0.000000 1.000000 0.000000
vn 0.000000 1.000000 0.000000
vn 0.000000 1.000000 0.000000
vn 0.000000 -1.000000 0.000000
vn 0.000000 -1.000000 0.000000
vn -0.935895 0.000000 -0.352280
vn -0.935895 0.000000 -0.352280
s 1
g pasted__pDisc2 group
usemtl initialShadingGroup
f 62/23/1 63/11/2 64/20/3 65/24/4
f 64/20/3 66/123/5 67/124/6 65/24/4
f 67/124/6 68/125/7 69/22/8 65/24/4
f 69/22/8 70/12/9 62/23/1 65/24/4
f 69/22/8 68/125/7 71/126/10 72/28/11
f 71/126/10 73/127/12 74/128/13 72/28/11
f 74/128/13 75/129/14 76/27/15 72/28/11
f 76/27/15 70/12/9 69/22/8 72/28/11
f 76/27/15 75/129/14 77/130/16 78/32/17
f 77/130/16 79/131/18 80/30/19 78/32/17
f 80/30/19 81/10/20 82/31/21 78/32/17
f 82/31/21 70/12/9 76/27/15 78/32/17
f 82/31/21 81/10/20 83/33/22 84/35/23
f 83/33/22 85/7/24 86/34/25 84/35/23
f 86/34/25 63/11/2 62/23/1 84/35/23
f 62/23/1 70/12/9 82/31/21 84/35/23
f 87/38/26 81/10/20 80/30/19 88/39/27
f 80/30/19 79/131/18 89/132/28 88/39/27
f 89/132/28 90/133/29 91/37/30 88/39/27
f 91/37/30 92/16/31 87/38/26 88/39/27
f 91/37/30 90/133/29 93/134/32 94/43/33
f 93/134/32 95/135/34 96/136/35 94/43/33
f 96/136/35 97/137/36 98/42/37 94/43/33
f 98/42/37 92/16/31 91/37/30 94/43/33
f 98/42/37 97/137/36 99/138/38 100/47/39
f 99/138/38 101/139/40 102/45/41 100/47/39
f 102/45/41 103/15/42 104/46/43 100/47/39
f 104/46/43 92/16/31 98/42/37 100/47/39
f 104/46/43 103/15/42 105/48/44 106/49/45
f 105/48/44 85/7/24 83/33/22 106/49/45
f 83/33/22 81/10/20 87/38/26 106/49/45
f 87/38/26 92/16/31 104/46/43 106/49/45
f 107/52/46 103/15/42 102/45/41 108/53/47
f 102/45/41 101/139/40 109/140/48 108/53/47
f 109/140/48 110/141/49 111/51/50 108/53/47
f 111/51/50 112/19/51 107/52/46 108/53/47
f 111/51/50 110/141/49 113/142/52 114/57/53
f 113/142/52 115/143/54 116/144/55 114/57/53
f 116/144/55 117/145/56 118/56/57 114/57/53
f 118/56/57 112/19/51 111/51/50 114/57/53
f 118/56/57 117/145/56 119/146/58 120/60/59
f 119/146/58 66/123/5 64/20/3 120/60/59
f 64/20/3 63/11/2 121/59/60 120/60/59
f 121/59/60 112/19/51 118/56/57 120/60/59
f 121/59/60 63/11/2 86/34/25 122/61/61
f 86/34/25 85/7/24 105/48/44 122/61/61
f 105/48/44 103/15/42 107/52/46 122/61/61
f 107/52/46 112/19/51 121/59/60 122/61/61
s 2
f 23/62/62 24/65/63 20/64/64 11/63/65
f 20/64/64 24/65/63 21/67/66 6/66/67
f 21/67/66 24/65/63 22/69/68 8/68/69
f 22/69/68 24/65/63 23/62/62 12/70/70
f 22/69/68 28/72/71 25/71/72 8/68/69
f 25/71/72 28/72/71 26/74/73 1/73/74
f 26/74/73 28/72/71 27/76/75 9/75/76
f 27/76/75 28/72/71 22/69/68 12/70/70
f 27/76/75 32/78/77 29/77/78 9/75/76
f 29/77/78 32/78/77 30/80/79 4/79/80
f 30/80/79 32/78/77 31/82/81 10/81/82
f 31/82/81 32/78/77 27/76/75 12/70/70
f 31/82/81 35/84/83 33/83/84 10/81/82
f 33/83/84 35/84/83 34/86/85 7/85/86
f 34/86/85 35/84/83 23/62/62 11/63/65
f 23/62/62 35/84/83 31/82/81 12/70/70
f 38/87/87 39/88/88 30/80/79 10/81/82
f 30/80/79 39/88/88 36/89/89 4/79/80
f 36/89/89 39/88/88 37/91/90 13/90/91
f 37/91/90 39/88/88 38/87/87 16/92/92
f 37/91/90 43/94/93 40/93/94 13/90/91
f 40/93/94 43/94/93 41/96/95 2/95/96
f 41/96/95 43/94/93 42/98/97 14/97/98
f 42/98/97 43/94/93 37/91/90 16/92/92
f 42/98/97 47/100/99 44/99/100 14/97/98
f 44/99/100 47/100/99 45/102/101 5/101/102
f 45/102/101 47/100/99 46/104/103 15/103/104
f 46/104/103 47/100/99 42/98/97 16/92/92
f 46/104/103 49/106/105 48/105/106 15/103/104
f 48/105/106 49/106/105 33/83/84 7/85/86
f 33/83/84 49/106/105 38/87/87 10/81/82
f 38/87/87 49/106/105 46/104/103 16/92/92
f 52/107/107 53/108/108 45/102/101 15/103/104
f 45/102/101 53/108/108 50/109/109 5/101/102
f 50/109/109 53/108/108 51/111/110 17/110/111
f 51/111/110 53/108/108 52/107/107 19/112/112
f 51/111/110 57/114/113 54/113/114 17/110/111
f 54/113/114 57/114/113 55/116/115 3/115/116
f 55/116/115 57/114/113 56/118/117 18/117/118
f 56/118/117 57/114/113 51/111/110 19/112/112
f 56/118/117 60/120/119 58/119/120 18/117/118
f 58/119/120 60/120/119 20/64/64 6/66/67
f 20/64/64 60/120/119 59/121/121 11/63/65
f 59/121/121 60/120/119 56/118/117 19/112/112
f 59/121/121 61/122/122 34/86/85 11/63/65
f 34/86/85 61/122/122 48/105/106 7/85/86
f 48/105/106 61/122/122 52/107/107 15/103/104
f 52/107/107 61/122/122 59/121/121 19/112/112
s 3
f 123/147/123 124/148/124 125/149/125 126/150/126
f 124/148/124 127/151/127 128/152/128 125/149/125
f 127/151/127 129/153/129 130/154/130 128/152/128
f 129/153/129 131/155/131 132/156/132 130/154/130
f 131/155/131 133/157/133 134/158/134 132/156/132
f 133/157/133 135/159/135 136/160/136 134/158/134
f 135/159/135 137/161/137 138/162/138 136/160/136
f 137/161/137 139/163/139 140/164/140 138/162/138
f 139/163/139 141/165/141 142/166/142 140/164/140
f 141/165/141 143/167/143 144/168/144 142/166/142
f 143/167/143 145/169/145 146/170/146 144/168/144
f 40/40/147 2/2/148 95/135/149 93/134/150
f 2/2/148 41/41/151 96/136/152 95/135/149
f 41/41/151 14/14/153 97/137/154 96/136/152
f 14/14/153 44/44/155 99/138/156 97/137/154
f 44/44/155 5/5/157 101/139/158 99/138/156
f 5/5/157 50/50/159 109/140/160 101/139/158
f 50/50/159 17/17/161 110/141/162 109/140/160
f 17/17/161 54/54/163 113/142/164 110/141/162
f 54/54/163 3/3/165 115/143/166 113/142/164
f 3/3/165 55/55/167 116/144/168 115/143/166
f 55/55/167 18/18/169 117/145/170 116/144/168
f 18/18/169 58/58/171 119/146/172 117/145/170
f 147/171/173 123/147/123 126/150/126 148/172/174
s 5
f 6/6/175 21/21/176 124/148/177 123/147/178
s 6
f 67/124/179 66/123/180 126/150/181 125/149/182
s 2
f 21/21/66 8/8/69 127/151/183 124/148/184
s 1
f 68/125/7 67/124/6 125/149/185 128/152/186
s 2
f 8/8/69 25/25/72 129/153/187 127/151/183
s 1
f 71/126/10 68/125/7 128/152/186 130/154/188
s 2
f 25/25/72 1/1/74 131/155/189 129/153/187
s 1
f 73/127/12 71/126/10 130/154/188 132/156/190
s 2
f 1/1/74 26/26/73 133/157/191 131/155/189
s 1
f 74/128/13 73/127/12 132/156/190 134/158/192
s 2
f 26/26/73 9/9/76 135/159/193 133/157/191
s 1
f 75/129/14 74/128/13 134/158/192 136/160/194
s 2
f 9/9/76 29/29/78 137/161/195 135/159/193
s 1
f 77/130/16 75/129/14 136/160/194 138/162/196
s 2
f 29/29/78 4/4/80 139/163/197 137/161/195
s 1
f 79/131/18 77/130/16 138/162/196 140/164/198
s 2
f 4/4/80 36/36/89 141/165/199 139/163/197
s 1
f 89/132/28 79/131/18 140/164/198 142/166/200
s 2
f 36/36/89 13/13/91 143/167/201 141/165/199
s 1
f 90/133/29 89/132/28 142/166/200 144/168/202
s 2
f 13/13/91 40/40/94 145/169/203 143/167/201
s 3
f 40/40/147 93/134/150 146/170/146 145/169/145
s 1
f 93/134/32 90/133/29 144/168/202 146/170/204
s 5
f 58/58/205 6/6/175 123/147/178 147/171/206
s 6
f 66/123/180 119/146/207 148/172/208 126/150/181
s 3
f 119/146/209 58/58/210 147/171/173 148/172/174
